<?xml version="1.0" encoding="utf-8"?>
<!DOCTYPE svg PUBLIC "-//W3C//DTD SVG 1.0//EN" "http://www.w3.org/TR/2001/REC-SVG-20010904/DTD/svg10.dtd">
<svg version="1.0" xmlns="http://www.w3.org/2000/svg" width="1024px" height="1024px" viewBox="0 0 1024 1024" preserveAspectRatio="xMidYMid meet">
 <g fill="#030707">
  <path d="M0 512 l0 -512 512 0 512 0 0 512 0 512 -512 0 -512 0 0 -512z m412.05 415.70 c1.45 -0.75 4.60 -3.25 8.20 -6.65 6.65 -6.25 27.50 -24.35 40.20 -34.95 7.50 -6.25 7.90 -6.40 13.55 -4.80 6.60 1.85 12.30 3.45 17.60 4.90 5.90 1.55 6.30 1.60 9.10 0.30 2.35 -1.15 2.65 -1.35 8.55 -6.95 10.60 -10 20.75 -19.20 31.50 -28.60 3.60 -3.10 6.65 -5.85 6.80 -6.10 0.45 -0.60 4.05 -0.25 10.70 1.10 3.05 0.60 6.75 1.30 8.25 1.55 1.50 0.25 4.35 0.70 6.25 1 4.35 0.70 9.15 1.35 15 2.05 2.50 0.25 6.30 0.70 8.50 1 8.80 1.05 19.10 1.60 30.25 1.65 l11.75 0.05 2.45 1.70 c3.80 2.65 7 3.70 11.30 3.75 4.40 0.05 7 -0.85 10.85 -3.75 3.40 -2.55 6.15 -7.85 6.50 -12.55 0.60 -7.55 -5 -15.10 -13.40 -17.90 -2.85 -1 -3.45 -1.05 -5.70 -0.50 -5 1.25 -10.05 4.70 -12.80 8.70 l-1.20 1.80 -9.25 0 c-10.35 0 -25.65 -1.05 -36.75 -2.50 -1.90 -0.25 -5.40 -0.70 -7.75 -1.05 -5.85 -0.75 -21.25 -3.30 -27 -4.45 -8.40 -1.65 -13.20 -2.60 -15 -3 -0.95 -0.20 -2.85 -0.65 -4.25 -0.95 -9.55 -2.05 -12.60 -2.75 -21.50 -5.05 -5.50 -1.40 -10.65 -2.75 -11.50 -3 -0.80 -0.20 -2.85 -0.80 -4.50 -1.25 -1.65 -0.45 -4.90 -1.35 -7.25 -2.05 -2.35 -0.70 -5.50 -1.60 -7 -2 -1.50 -0.40 -3.30 -0.90 -4 -1.20 -0.70 -0.25 -2.80 -0.90 -4.75 -1.45 -3.10 -0.90 -6.90 -2.05 -18.50 -5.55 -5.90 -1.80 -8.50 -2.60 -9.65 -3.05 -4.35 -1.70 -10.25 1.40 -12.35 6.40 -1.05 2.50 -0.95 3.75 0.55 5.95 2.35 3.45 4.60 4.60 14.45 7.45 2.50 0.75 6.75 2 9.50 2.85 2.75 0.80 6.60 1.95 8.50 2.45 1.95 0.55 4.20 1.20 5 1.45 0.85 0.25 4.65 1.35 8.50 2.50 3.85 1.15 7.75 2.30 8.65 2.55 4.30 1.20 4.40 1.25 13.60 3.75 1.50 0.45 4.35 1.20 6.25 1.70 14.10 3.70 13.25 3.35 13.20 5.45 -0.05 1.55 -0.50 2.20 -3.60 5 -2 1.80 -5.40 4.95 -7.60 7 -15.70 14.80 -16 15.05 -18.30 15.05 -1.15 0 -2.80 -0.20 -3.65 -0.50 -3.10 -1 -10.10 -3.10 -11.55 -3.50 -0.80 -0.25 -3.50 -1 -6 -1.75 -8.55 -2.55 -9.30 -2.25 -20.80 7.70 -2.05 1.75 -4.95 4.25 -6.40 5.50 -3.50 2.95 -6.75 5.70 -7.05 6.05 -0.15 0.15 -4.30 3.75 -9.25 8 -18.60 15.90 -27.25 24.05 -28.80 27.10 -1.35 2.65 -1.20 4.80 0.50 7.50 3 4.70 6.95 6.20 11.10 4.10z m240.75 -17.70 c19.45 -0.75 31.85 -1.95 35.55 -3.55 2.80 -1.20 5.45 -3.70 16.30 -15.45 4.95 -5.35 11.40 -12.35 14.35 -15.50 2.90 -3.15 7 -7.60 9 -9.90 2.95 -3.30 4.15 -4.20 5.75 -4.65 5.60 -1.40 9.30 -3.75 12.20 -7.60 2.45 -3.30 3.25 -4.95 4.05 -8.20 0.55 -2.35 0.50 -3 -0.50 -5.95 -1.75 -5.55 -4.90 -9.30 -9.40 -11.30 -8.60 -3.85 -18.75 0.10 -23.15 9 -1.80 3.65 -2.05 6.30 -1.25 12.35 l0.40 3 -3.15 3.50 c-9.15 10.30 -18.05 19.80 -25.95 27.85 l-6.25 6.35 -9 0.75 c-19 1.60 -23.50 1.80 -38.40 1.80 -14.45 0 -20.65 -0.30 -33.60 -1.55 -7.55 -0.70 -17.65 -2.10 -24.75 -3.40 -11.05 -2.05 -12.30 -1.95 -15.70 1 -3.95 3.50 -4.30 7.75 -0.90 11.55 2.80 3.10 5.50 4.05 16.75 5.85 25.45 4.10 46.85 5.20 77.65 4.05z m-241.80 -45.95 c5.45 -2.80 9.90 -8.15 11.05 -13.30 0.55 -2.45 0.50 -3.05 -0.50 -6.05 -1.40 -4.35 -3.45 -7.20 -6.40 -9.10 -7.30 -4.60 -13.10 -4.65 -20.20 0 -1.75 1.10 -3.60 1.90 -4.45 1.90 -1.45 0 -3.40 -0.45 -18.50 -4.05 -3.45 -0.85 -9.50 -2.30 -13.50 -3.25 -4 -0.90 -8.05 -1.90 -9 -2.20 -1.90 -0.50 -17.05 -4.20 -25.50 -6.20 -4.65 -1.10 -15.60 -3.35 -23.50 -4.80 -24.80 -4.65 -53.05 -6.05 -76.50 -3.75 -16.10 1.55 -19.25 2.45 -22.10 6.35 -2.10 2.85 -2.55 4.45 -1.70 6.40 1.30 3.20 3.70 5.95 6.30 7.25 2.85 1.45 4.20 1.50 10 0.45 28.05 -5 63.25 -3.45 98 4.30 8.15 1.80 15.50 3.55 22.50 5.35 21.70 5.55 31.45 8.05 41.65 10.60 10.80 2.70 11.40 2.95 12.50 4.45 1.55 2.20 5.10 4.75 8.35 6 3.65 1.45 8.35 1.30 11.50 -0.35z m382.25 -28.30 c4.80 -1.05 25.35 -7.95 30.50 -10.30 1.10 -0.50 3.35 -1.45 5 -2.10 10.05 -4.15 28.40 -13.30 44 -21.95 10.60 -5.90 13.10 -7.85 14.20 -11.30 0.60 -1.70 0.55 -2.20 -0.45 -4.55 -1.30 -2.95 -4.10 -5.60 -6.75 -6.45 -2.70 -0.80 -5.50 0.25 -13.55 5.05 -10 6 -19.65 11.35 -25.70 14.20 -7 3.35 -20.70 9.35 -24.35 10.65 -8.70 3.15 -13.15 4.65 -20.30 6.70 -8.80 2.55 -10 3.10 -11.95 5.15 -3.85 4.05 -3.45 8.95 1.10 12.75 2.05 1.75 4.80 2.95 6 2.65 0.40 -0.10 1.45 -0.35 2.25 -0.50z m-114.30 -38.75 c3.20 -0.30 8.50 -0.75 11.80 -1.05 12.55 -1.05 27.85 -3.05 37.75 -4.90 2.90 -0.55 6.05 -1.15 7 -1.30 4.55 -0.80 20.35 -4.60 27.75 -6.65 11.30 -3.15 25.20 -7.60 33.25 -10.60 2.35 -0.90 4.80 -1.75 5.50 -2 1.60 -0.50 9.85 -3.80 16.30 -6.50 6.95 -2.95 26.60 -12.65 34.95 -17.25 19.15 -10.60 41.20 -25.10 60.60 -39.85 7.90 -5.95 10.85 -8.85 11.70 -11.30 1.80 -5.35 -4.25 -12.75 -9.70 -11.90 -2.70 0.45 -4 1.20 -8.60 5.05 -5 4.20 -15.80 12.05 -30 21.80 -9.55 6.55 -35.90 21.70 -47.15 27 -9.60 4.60 -29.70 13.45 -37.10 16.45 -15.85 6.30 -39.80 13.45 -57 16.95 -13.65 2.75 -21.30 4 -34.50 5.50 -17.95 2.05 -22.50 2.30 -45 2.30 -23 0 -29.95 -0.40 -49.10 -2.75 -31.70 -3.95 -60.85 -10.20 -102.50 -22.05 -5.90 -1.65 -6.50 -1.80 -10.15 -2.95 -1.90 -0.60 -4.95 -1.45 -6.75 -2 -1.80 -0.50 -4.80 -1.40 -6.75 -2 -1.90 -0.60 -4.15 -1.25 -5 -1.50 -0.80 -0.25 -3 -0.90 -4.85 -1.45 -1.90 -0.60 -4.85 -1.50 -6.65 -2.05 -1.80 -0.55 -4.70 -1.45 -6.50 -2 -1.80 -0.55 -4.70 -1.45 -6.50 -2 -1.80 -0.55 -4.70 -1.45 -6.50 -2 -7.55 -2.30 -10.25 -3.15 -14.75 -4.50 -2.60 -0.80 -6.30 -1.90 -8.25 -2.50 -1.90 -0.60 -4.95 -1.50 -6.75 -2 -1.80 -0.50 -5.95 -1.70 -9.25 -2.65 -3.30 -0.95 -9.50 -2.65 -13.75 -3.85 -4.25 -1.15 -8.30 -2.30 -9 -2.50 -0.70 -0.25 -4.40 -1.15 -8.25 -2 -3.85 -0.85 -9.80 -2.25 -13.25 -3.05 -3.45 -0.85 -7.15 -1.70 -8.25 -1.95 -4.30 -0.95 -6.60 -1.45 -8.75 -1.95 -2 -0.45 -8 -1.65 -15.25 -3 -1.35 -0.30 -5.40 -0.95 -9 -1.55 -13.95 -2.25 -18.05 -2.85 -23.75 -3.50 -2.60 -0.30 -6.45 -0.75 -8.50 -1 -4.45 -0.55 -12.70 -1.30 -22 -2 -8.55 -0.65 -38.40 -0.65 -46.85 0 -15.50 1.15 -21 1.70 -32.85 3.30 -8.45 1.10 -23.40 4 -31.05 6 -3.55 0.90 -7.05 1.80 -7.75 2 -8.15 2.15 -23.45 7.30 -28.65 9.65 -1.20 0.55 -3.40 1.50 -4.90 2.05 -4.50 1.80 -11.25 5.45 -12.90 7 -2 1.90 -3.15 4.25 -3.15 6.30 0 2.45 2.30 6.05 5 7.80 2.95 1.85 5.40 1.75 10.35 -0.55 14.75 -6.90 35.60 -13.65 54.75 -17.75 12.70 -2.70 27.55 -4.75 42 -5.80 4.25 -0.30 10.70 -0.75 14.25 -1 15.50 -1.20 47.20 -0.10 64.50 2.20 1.10 0.15 4.05 0.50 6.50 0.80 10.55 1.25 19 2.60 35 5.50 1.50 0.30 3.95 0.70 5.40 0.95 9.90 1.80 31.45 6.60 44.85 10 9.65 2.45 12.90 3.35 20.90 5.55 l4.10 1.15 0 1.85 c0 1.80 -0.65 2.55 -15.05 16.70 -16.55 16.35 -15.65 15.70 -20.45 14 -3.55 -1.25 -7.40 -2.20 -9.05 -2.20 -4.60 0 -10.05 6.05 -9.15 10.20 0.90 4.20 4.15 6.75 11.20 8.85 2.05 0.60 4.75 1.40 6 1.80 7.15 2.35 9.40 2.30 13.25 -0.35 2.90 -2 15.80 -14.15 31.60 -29.70 16.30 -16.05 13.35 -14.80 25.90 -10.80 5.20 1.65 8.25 2.60 16.25 5 2.60 0.80 6.25 1.90 8.15 2.45 7.55 2.35 10.25 3.15 13.60 4.10 8.45 2.45 10.80 3.10 25 7.15 24.55 7.05 26.10 7.45 42.75 11.35 9.75 2.30 21 4.65 28.25 5.95 13.05 2.35 15.65 2.75 24.50 4 19.85 2.75 35.90 3.80 57.95 3.90 9.10 0.05 19.10 -0.15 22.25 -0.40z m-519.15 -13.40 c4.70 -1.65 9.05 -3.05 9.75 -3.25 0.65 -0.15 3.45 -0.80 6.20 -1.50 7.50 -1.80 13.35 -2.95 19.50 -3.85 2.20 -0.30 5.35 -0.75 7 -1 9.70 -1.45 25.75 -2.50 38.20 -2.50 13.75 0 18.75 0.30 45.15 2.85 1.85 0.20 2.55 0.50 3.20 1.55 3.10 4.75 9.95 8.60 15.20 8.60 4.75 0 11.05 -3.50 14 -7.70 2.05 -3 3.70 -8.35 3.25 -10.70 -1.40 -7.95 -9.30 -14.75 -17 -14.70 -3.55 0 -6.25 0.90 -10.25 3.40 -2.40 1.50 -3.30 1.75 -4.85 1.55 -1.05 -0.10 -4.60 -0.55 -7.90 -1 -19.25 -2.50 -41.15 -3.40 -56.70 -2.35 -29.10 2 -45.05 4.85 -66 11.85 -4.55 1.50 -9.40 3.35 -10.75 4.05 -6.55 3.55 -7.50 9.65 -2.25 14.35 1.55 1.35 4.70 3.25 5.45 3.25 0.20 0 4.15 -1.30 8.80 -2.90z m472 -35.05 c3.75 -1.35 5.45 -2 9.95 -3.95 13.55 -5.80 33.55 -18.45 49.50 -31.30 28.30 -22.75 46.50 -51.95 55.70 -89.30 5.50 -22.50 6.25 -50.55 2.05 -75.50 -0.25 -1.50 -1.20 -7 -2.05 -12.25 -0.85 -5.20 -2.10 -12.30 -2.80 -15.75 -0.70 -3.45 -1.45 -7.15 -1.65 -8.25 -1.25 -6.40 -4.35 -20.30 -5.75 -25.75 -0.40 -1.55 -0.95 -3.80 -1.20 -5 -0.25 -1.25 -1.20 -4.95 -2.05 -8.25 -0.90 -3.30 -1.75 -6.65 -1.95 -7.50 -0.35 -1.50 -0.35 -1.45 -1.75 1.50 -0.75 1.65 -2.10 4.60 -2.95 6.50 -3.90 8.80 -12.45 25.20 -17.35 33.25 -5.90 9.70 -9 14.55 -14.30 21.90 -1.60 2.30 -3.60 5.15 -4.45 6.30 -2.25 3.15 -10.45 13.20 -15 18.30 -7.80 8.85 -29.30 29.40 -39 37.25 -1.35 1.10 -3.10 2.60 -3.95 3.30 -0.85 0.70 -5.60 4.30 -10.55 8 -40.50 30.25 -85.40 51.55 -125.75 59.65 -7.75 1.55 -24.85 3.60 -33.45 3.95 -2.50 0.10 -2.80 0.25 -3.65 1.75 -3.10 5.65 -20 39.70 -19.75 39.90 0.15 0.20 2.95 1.10 6.20 2.05 3.25 0.95 8.10 2.40 10.80 3.20 20.90 6.25 24.70 7.40 28.35 8.45 1.80 0.50 10 2.85 18.25 5.25 17.15 4.95 17.20 4.95 30.25 8.30 11.60 2.95 19.60 4.75 31.75 7.15 4.95 1 10.15 2 11.50 2.30 1.40 0.25 4.10 0.70 6 1 1.95 0.35 4.75 0.80 6.25 1 8 1.35 24.85 3.35 30.75 3.70 7.10 0.40 8.10 0.30 12.05 -1.15z m56 0.70 c8.50 -1.45 19 -4.20 29 -7.50 20.30 -6.75 38.45 -18.35 54.20 -34.55 20.25 -20.90 34.05 -47 40.90 -77.45 0.75 -3.30 1.35 -6.90 3.20 -19.25 0.85 -5.80 0.85 -36 0 -42.75 -1.20 -9.35 -2.35 -16.60 -3.60 -23 -0.25 -1.10 -0.65 -3.25 -0.95 -4.75 -0.50 -2.65 -2.40 -10.25 -4.50 -18 -0.85 -3.15 -5.35 -17.95 -6.20 -20.50 -4.25 -12.30 -10.30 -28.20 -13.15 -34.40 -0.65 -1.45 -1.20 -2.75 -1.20 -2.85 0 -0.10 -0.65 -1.70 -1.50 -3.50 -0.80 -1.80 -1.50 -3.40 -1.50 -3.50 0 -0.10 -0.70 -1.75 -1.55 -3.60 -0.85 -1.90 -2.85 -6.30 -4.45 -9.90 -1.60 -3.55 -3.45 -7.75 -4.15 -9.25 -3.90 -8.60 -8.80 -20.85 -9.90 -24.75 -3.15 -11.75 -3.15 -11.55 -3.15 -21.50 0 -9 0.10 -9.70 1.30 -13.15 4.30 -12.05 13.40 -18.35 25.15 -17.45 6.85 0.50 11.65 3.60 14.60 9.35 1.25 2.50 1.35 3.20 1.35 8 0 4.55 -0.20 5.65 -1.25 8 -2.85 6.15 -9.60 9.40 -17 8.15 -1.75 -0.30 -3.60 -0.70 -4.10 -0.90 -0.75 -0.35 -0.80 -0.20 -0.35 1.05 3.65 10.05 13.55 14.60 24.25 11.15 6 -1.90 10.35 -4.85 14.20 -9.45 6.55 -7.90 8.65 -17.55 5.90 -27.50 -5.40 -19.45 -21.75 -32.30 -40.85 -32.15 -4.45 0.05 -5.95 0.30 -10 1.65 -5.20 1.70 -11.25 4.60 -14.85 7.10 -3.50 2.40 -9.50 8.30 -11.90 11.65 -7.60 10.70 -11.30 25.50 -9.80 39.10 0.90 8.20 4 23 7.50 35.90 1 3.70 10.05 40.15 12.25 49.40 2.80 11.60 3.90 16.20 4.55 19.10 0.40 1.65 1.15 4.90 1.70 7.25 1.10 4.55 3.75 16.30 4.80 21.25 1.60 7.30 2.95 17.25 4.25 30.65 0.80 8.25 0.65 38.35 -0.25 46.35 -2.45 22.05 -7.15 39.90 -15.80 60.25 -2.15 5 -9.85 20.15 -12.65 24.85 -14.45 24.25 -32.85 43.85 -55.05 58.65 -4.65 3.10 -5.15 3.50 -4.40 3.50 0.30 0 2.50 -0.35 4.95 -0.75z m-267.30 -50.35 c0.65 -1.45 10.70 -21.75 22.25 -45.15 11.60 -23.35 23.25 -46.90 25.85 -52.25 2.65 -5.35 8 -16.25 11.90 -24.25 3.90 -7.95 8.90 -18.20 11.05 -22.75 2.20 -4.55 4.65 -9.55 5.45 -11.10 l1.45 -2.90 -12.15 0 c-9.20 0 -12.30 0.15 -12.70 0.65 -0.30 0.35 -4.95 9.50 -10.40 20.35 -9.10 18.25 -13.55 27.25 -28.20 57.25 -2.95 6.05 -12.75 25.75 -21.70 43.75 -11.45 23.05 -16.10 32.80 -15.65 33.05 0.30 0.20 2.40 0.80 4.60 1.35 8.60 2.15 16 4.15 16.20 4.35 0.55 0.55 0.95 0.10 2.05 -2.35z m-40.75 -15.25 c9.70 -19.80 16.25 -33.85 16.25 -35 0 -0.25 -1.30 -1.40 -2.95 -2.55 -5.05 -3.70 -11.80 -11.30 -16.15 -18.10 -0.95 -1.50 -2.30 -3.70 -3 -4.80 -3.60 -5.65 -10.55 -21.25 -12.40 -27.95 -0.25 -0.80 -0.70 -2.40 -1.05 -3.50 -0.30 -1.10 -0.70 -3.40 -0.80 -5.15 l-0.25 -3.15 1.85 0.15 c1.60 0.15 2 0.45 3.10 2.40 1.25 2.20 3.10 5 3.65 5.50 0.15 0.15 1.15 1.35 2.25 2.75 6.25 7.80 15.90 14.25 25.75 17.20 2.05 0.60 4.30 1.30 5 1.50 1.10 0.35 1.50 0 3.95 -3.40 11.30 -15.75 21.10 -30.75 26.45 -40.55 9.40 -17.25 38.10 -75.30 38.10 -77 0 -0.25 -0.30 -0.35 -0.60 -0.25 -0.70 0.25 -6.90 0.90 -18.15 2 -10.35 1 -30.60 1 -36.45 -0.05 -16.75 -2.90 -27.55 -10.65 -32.45 -23.15 -1.30 -3.35 -1.55 -4.60 -1.75 -10.35 -0.35 -10.40 1.15 -16.60 6.90 -27.95 4.35 -8.65 11.70 -19.65 17.90 -26.90 6.85 -7.95 18.20 -19.50 25.10 -25.50 2.90 -2.55 5.70 -5 6.25 -5.50 2.80 -2.60 12.95 -9.85 16 -11.45 5.05 -2.60 8.20 -3.40 13.55 -3.40 6.30 0 9.20 1.10 12.70 4.75 6.05 6.40 8.70 16.85 8.70 33.75 -0.05 8.10 -0.25 11.40 -1.45 20.75 l-0.25 2 0.75 -1.65 c0.40 -0.90 1.45 -4.25 2.25 -7.50 4.90 -19.10 4.05 -38 -2.45 -55.85 -1.55 -4.15 -7.25 -14.40 -10.20 -18.30 -10.50 -13.90 -23.40 -22.75 -46.60 -31.95 -12.70 -5 -18.20 -8.10 -23.95 -13.50 -3.25 -3.05 -2.95 -2.70 -8.05 -8.30 -8.65 -9.50 -10.55 -11.35 -14.45 -14.30 -8.85 -6.65 -16.95 -8.95 -22.20 -6.20 -2.30 1.20 -4.95 4.10 -6.35 7 -2.80 5.70 -3.55 11.50 -4.25 33.55 -0.50 15.50 -1.15 21.50 -2.75 25.75 -2.25 5.90 -5.15 11.25 -9.10 16.65 -9.20 12.60 -15.50 25.75 -18.25 38.10 -1.45 6.60 -1.75 17.80 -0.65 23.85 1.65 8.90 5 17.10 9.30 22.70 1.15 1.50 1.95 3.10 1.95 3.90 0 0.80 -1.15 3.05 -2.95 5.70 -5.85 8.75 -13.95 23.50 -19.20 35.15 -9.10 20.05 -20.60 51.55 -29.60 81.20 -4.40 14.50 -6.90 22.75 -7.75 25.75 -1.75 6.05 -5.45 16.35 -7.70 21.50 -6.30 14.15 -13 21.30 -22.35 23.75 -5.45 1.45 -13.80 0.85 -19.15 -1.45 -4.25 -1.80 -9.50 -6.90 -11.95 -11.65 -1.20 -2.30 -3.15 -8.45 -3.90 -12.40 -0.85 -4.35 -0.85 -21.75 0 -26 1.70 -8.50 3.35 -14.10 6.65 -22.75 3.60 -9.45 7.95 -20.75 8.40 -21.75 1.10 -2.70 3.55 -9.35 4.40 -12.25 2 -6.50 2.35 -8.75 2.30 -15.75 0 -5.65 -0.20 -7.75 -1.10 -10.90 -4.70 -16.60 -16.55 -26.30 -32.15 -26.35 -7.20 0 -11.90 2.10 -18.25 8.10 -4 3.85 -6.90 8 -8.70 12.65 -1 2.45 -1.20 3.95 -1.20 8 0 4.70 0.10 5.25 1.80 8.75 3.65 7.70 12.10 12.85 19.15 11.70 2.90 -0.45 3.65 -1 1.95 -1.35 -2.30 -0.45 -4.80 -2.40 -6.45 -5.05 -1.45 -2.40 -1.50 -2.70 -1.50 -8.25 0 -5.10 0.15 -6.05 1.15 -8.05 1.35 -2.50 3 -4.10 5.70 -5.55 2.30 -1.15 10 -1.35 12.55 -0.30 2.35 1 4.75 3.20 5.85 5.35 2.45 4.85 2.35 15.55 -0.30 25.40 -3.75 13.95 -7.90 23.95 -17.85 42.90 -1.45 2.75 -3.25 6.45 -4.05 8.25 -0.80 1.75 -1.95 4.35 -2.60 5.80 -1.50 3.30 -4.85 13.30 -6.15 18.15 -1.55 6 -2.95 14.20 -3.60 21.50 -1.40 15.80 2.80 40.20 10.10 58.40 2.15 5.35 2.15 5.35 3.50 5.30 0.65 0 3.90 -0.40 7.20 -0.90 12.10 -1.70 16.25 -2.10 32.20 -3.30 8.60 -0.65 36.65 -0.65 44.90 0 15.70 1.20 20.15 1.60 23.65 2 2.05 0.25 5.80 0.70 8.25 1 2.50 0.30 5.85 0.75 7.50 1 1.65 0.25 4.70 0.70 6.75 1 8.20 1.20 13.40 2.05 18.50 3 1.25 0.25 3.60 0.65 5.25 0.95 5.50 0.95 20.40 4.05 27.75 5.75 4 0.95 7.60 1.70 8.05 1.75 0.60 0.05 1.85 -2 4.20 -6.80z m151.60 -210.50 c2.35 -4.90 5 -10.45 5.90 -12.40 2.40 -5.15 6.65 -14 10.75 -22.50 7.90 -16.35 8.15 -16.90 7.15 -17.45 -6.30 -3.85 -18.55 -9.95 -19.15 -9.55 -0.30 0.15 -0.50 0.50 -0.50 0.70 0 0.25 -2.70 6 -6 12.80 -3.30 6.75 -6 12.40 -6 12.50 0 0.05 -2.40 5.05 -5.30 11.05 -2.90 6.05 -5.75 11.95 -6.30 13.20 -0.55 1.25 -2.80 5.90 -4.95 10.40 -2.20 4.50 -3.95 8.25 -3.95 8.35 0 0.40 4.55 0.80 12.75 1.20 4.70 0.20 9.15 0.45 9.90 0.50 1.35 0.05 1.60 -0.35 5.70 -8.80z m51.15 -103.60 c0 -0.35 2.05 -4.75 10.25 -21.80 1.20 -2.45 3.20 -6.70 4.45 -9.40 1.30 -2.70 3.90 -8.20 5.85 -12.25 1.95 -4.05 4.50 -9.35 5.70 -11.85 1.15 -2.45 3.60 -7.60 5.45 -11.40 1.80 -3.75 4.10 -8.60 5.10 -10.75 2.35 -4.90 6.40 -13.45 10.55 -22.10 1.80 -3.70 4.25 -8.90 5.50 -11.50 1.25 -2.60 3.85 -8 5.75 -12 3.70 -7.60 7.20 -15 10.40 -21.75 3.60 -7.70 6.60 -14 13.95 -29.35 2.65 -5.55 6.80 -14.25 11.90 -24.90 1.80 -3.70 4.30 -8.90 5.50 -11.50 10.40 -21.95 11.40 -24 14.85 -31.65 2.90 -6.45 2.55 -9.40 -1.65 -13.75 -2.35 -2.45 -4.40 -3.55 -7.80 -4.35 -3.55 -0.85 -5.95 0.10 -9.25 3.55 -2.45 2.60 -4.70 6.80 -11.15 20.70 -0.70 1.50 -2.85 6.05 -4.80 10.10 -5.35 11.15 -7.60 15.90 -13.95 29.40 -1.05 2.35 -3.25 6.95 -4.85 10.25 -5.20 10.90 -12.25 25.70 -14.25 30 -0.75 1.65 -2.80 5.95 -4.50 9.50 -3.55 7.45 -7.15 15 -10.25 21.50 -2.20 4.70 -4.25 9 -9.55 20.15 -1.75 3.70 -3.20 6.75 -3.20 6.85 0 0.05 -1.80 3.90 -4.05 8.55 -2.25 4.65 -4.70 9.80 -5.45 11.45 -0.75 1.65 -3.45 7.25 -5.95 12.45 -2.50 5.15 -4.55 9.45 -4.55 9.55 0 0.05 -1.65 3.60 -3.65 7.80 -2.05 4.25 -4.50 9.40 -5.45 11.45 -1 2.05 -3.20 6.70 -4.90 10.25 -6.45 13.55 -9.50 20.15 -9.50 20.70 0 0.20 1.40 0.75 3.15 1.25 1.70 0.50 3.65 1.05 4.35 1.30 0.70 0.20 2.15 0.65 3.25 0.90 2.20 0.60 8.80 2.50 10.75 3.10 1.30 0.40 2 0.20 2 -0.45z m-0.15 -107.30 c1.15 -2.45 2.75 -5.95 3.55 -7.75 0.80 -1.80 3.05 -6.50 5 -10.50 1.90 -4 5.20 -10.80 7.25 -15.10 2.10 -4.35 4.30 -8.95 4.90 -10.25 0.60 -1.35 2.10 -4.55 3.30 -7.15 2.15 -4.60 3.30 -7 5.85 -12.60 0.65 -1.45 1.90 -4.20 2.80 -6.15 0.90 -1.90 2.45 -5.40 3.50 -7.75 1.05 -2.35 2.45 -5.50 3.15 -7 2.50 -5.45 9 -19.85 10.85 -24 1.05 -2.35 2.60 -5.80 3.50 -7.75 0.90 -1.90 3.25 -7.10 5.25 -11.50 2 -4.40 4.65 -10.20 5.90 -12.85 1.30 -2.70 2.35 -5.30 2.45 -5.75 0.10 -0.60 -1.05 -1.45 -4.35 -3.10 -4.30 -2.20 -9.90 -4.85 -14.75 -6.95 -1.25 -0.55 -3.30 -1.45 -4.60 -2.05 -9.20 -4.15 -27.10 -10 -39.65 -13.05 -15.65 -3.75 -26.35 -5.45 -41.75 -6.50 -20 -1.45 -42.75 -0.15 -62 3.50 -1.25 0.20 -3.60 0.65 -5.25 0.95 -3.50 0.65 -4.70 0.95 -13.50 3.05 -3.55 0.85 -7.05 1.75 -7.75 2 -0.70 0.25 -3.60 1.15 -6.50 2 -2.90 0.90 -6.25 1.95 -7.50 2.35 -3.75 1.20 -19.60 7.20 -22.25 8.40 -1.35 0.60 -4.95 2.20 -8 3.50 -6.80 3 -23.45 11.45 -31.50 16 -29.55 16.80 -62.90 41.40 -89.25 65.95 -16.70 15.60 -50.40 51.10 -49.40 52.10 0.15 0.10 3.55 -1.35 7.55 -3.30 4.05 -1.90 7.45 -3.50 7.55 -3.50 0.10 0 3.20 -1.45 6.85 -3.20 15 -7.15 30.30 -13.15 44.95 -17.60 4 -1.20 7.95 -2.40 8.75 -2.65 3.70 -1.15 19.40 -4.75 24.15 -5.60 1.40 -0.25 3.90 -0.70 5.50 -1 15.95 -2.90 33.05 -4.15 51.95 -3.75 14.10 0.30 17.45 0.45 31.05 1.75 10.05 1 24.10 3.20 34.35 5.50 3.90 0.90 6.05 1.40 13.25 3.30 23.55 6.20 48.25 17.30 67.65 30.35 4.95 3.30 13.85 10 16.75 12.55 3.70 3.25 7.40 6.70 11.55 10.80 l4.25 4.15 1.30 -2.65 c0.70 -1.50 2.20 -4.70 3.35 -7.20z"/>
 </g>
 <g fill="#2aeedd">
  <path d="M405.40 930.05 c-2.25 -0.75 -4.45 -2.55 -5.95 -4.95 -1.20 -1.90 -1.45 -2.85 -1.45 -5.45 0 -2.15 0.30 -3.80 0.95 -5.05 1.55 -3.05 10.20 -11.20 28.80 -27.10 4.95 -4.25 9.10 -7.85 9.25 -8 0.30 -0.35 3.55 -3.10 7.05 -6.05 1.45 -1.25 4.35 -3.75 6.40 -5.50 9.90 -8.60 10.95 -9.20 15.80 -9.15 2.30 0.05 5.05 0.50 8 1.40 2.50 0.75 5.20 1.55 6 1.80 1.45 0.40 8.45 2.50 11.55 3.50 0.85 0.30 1.80 0.50 2.15 0.50 0.60 0 5.65 -4.50 16.80 -15.05 2.20 -2.05 5.60 -5.20 7.60 -7 1.95 -1.75 3.55 -3.35 3.60 -3.50 0.05 -0.35 -2.40 -1.10 -13.20 -3.95 -1.90 -0.50 -4.75 -1.25 -6.25 -1.70 -9.20 -2.50 -9.30 -2.55 -13.60 -3.75 -0.90 -0.25 -4.80 -1.40 -8.65 -2.55 -3.85 -1.15 -7.65 -2.25 -8.50 -2.50 -0.80 -0.25 -3.05 -0.90 -5 -1.45 -1.90 -0.50 -5.75 -1.65 -8.50 -2.45 -2.75 -0.85 -7 -2.10 -9.50 -2.85 -9.85 -2.85 -12.10 -4 -14.45 -7.45 -3.15 -4.70 -0.70 -12.10 4.95 -14.75 2.40 -1.10 7.70 -1.45 9.85 -0.60 1.15 0.45 3.75 1.25 9.65 3.05 11.60 3.50 15.40 4.65 18.50 5.55 1.95 0.55 4.05 1.20 4.75 1.45 0.70 0.30 2.50 0.80 4 1.20 1.50 0.40 4.65 1.30 7 2 2.35 0.70 5.60 1.60 7.25 2.05 1.65 0.45 3.70 1.05 4.50 1.25 0.85 0.25 6 1.60 11.50 3 8.90 2.30 11.95 3 21.50 5.05 1.40 0.30 3.30 0.75 4.25 0.95 1.80 0.40 6.60 1.35 15 3 5.75 1.15 21.15 3.70 27 4.45 2.35 0.35 5.85 0.80 7.75 1.05 10.45 1.40 26.35 2.50 35.25 2.50 l7.75 0 1.20 -1.80 c3.50 -5.15 10.75 -9.20 16.45 -9.20 2.80 0 7.70 1.65 10.45 3.55 2.95 2.05 5.85 5.80 7.15 9.30 0.90 2.40 1.05 3.70 0.90 7.45 -0.15 4.10 -0.40 5 -2.10 8.40 -1.45 3 -2.40 4.25 -4.45 5.75 -4.15 3.15 -6.30 3.80 -12.35 3.75 -5.85 0 -8.50 -0.80 -12.75 -3.70 l-2.40 -1.65 -12.05 -0.10 c-10.90 -0.15 -23.15 -0.75 -27.80 -1.45 -0.95 -0.15 -4 -0.50 -6.75 -0.80 -6.20 -0.65 -12.15 -1.45 -15.75 -2 -1.50 -0.25 -4.30 -0.70 -6.25 -1 -5.95 -0.95 -14.40 -2.50 -16.65 -3.10 -1.35 -0.35 -2.30 -0.40 -2.50 -0.10 -0.20 0.25 -3.25 3.05 -6.85 6.15 -10.75 9.40 -20.90 18.60 -31.50 28.60 -5.90 5.60 -6.20 5.80 -8.55 6.95 -3.95 1.85 -6 1.50 -25.45 -4 -0.80 -0.25 -2.90 -0.80 -4.65 -1.30 l-3.10 -0.85 -2.40 1.85 c-5.90 4.65 -37.85 32.30 -44.85 38.85 -3.65 3.45 -6.70 5.90 -8.40 6.75 -1.80 0.95 -6.10 1.35 -7.95 0.75z"/>
  <path d="M609.25 911.45 c-19.75 -1.25 -43.35 -4.60 -48.50 -6.90 -2.90 -1.30 -5.50 -4.40 -6.25 -7.45 -1.30 -5.50 2.30 -11.25 7.90 -12.60 2.40 -0.55 2.45 -0.55 14.10 1.55 18.75 3.40 36.70 4.95 56.85 4.95 13.45 0 18.05 -0.20 36.90 -1.80 l9 -0.75 6.25 -6.35 c8.05 -8.20 17.80 -18.65 25.90 -27.80 2.75 -3.10 3 -3.60 2.70 -5 -0.20 -0.85 -0.35 -3.55 -0.35 -6.05 0 -4.10 0.15 -4.80 1.70 -7.85 4.50 -9.10 15.35 -13.05 25.30 -9.35 4.90 1.80 8.40 5.80 10.30 11.70 1.75 5.50 0.90 10.60 -2.75 15.90 -3.20 4.70 -6.95 7.25 -13.05 8.80 -1.60 0.40 -2.80 1.40 -5.75 4.65 -2 2.30 -6.10 6.75 -9 9.90 -2.95 3.15 -9.40 10.15 -14.35 15.50 -14.25 15.45 -14.90 15.90 -22.65 16.90 -17.55 2.25 -54.90 3.25 -74.25 2.05z"/>
  <path d="M402.50 867.15 c-4.60 -0.65 -10.60 -4.05 -12.85 -7.25 -1.10 -1.50 -1.70 -1.75 -12.50 -4.45 -10.20 -2.55 -19.95 -5.05 -41.65 -10.60 -15.60 -4 -30.90 -7.35 -40.75 -8.90 -28.35 -4.50 -54.35 -4.75 -76.75 -0.75 -9.10 1.65 -13.85 0.60 -17.05 -3.85 -3.85 -5.25 -3.90 -9.40 -0.15 -13.80 2.85 -3.40 6.05 -4.30 21.70 -5.80 23.95 -2.40 54.60 -0.95 79.50 3.75 7.90 1.45 18.85 3.70 23.50 4.80 8.45 2 23.60 5.70 25.50 6.20 0.95 0.30 5 1.30 9 2.20 4 0.95 10.05 2.40 13.50 3.25 3.45 0.80 8.65 2.05 11.60 2.75 l5.35 1.30 3 -1.90 c4.40 -2.85 7.80 -3.80 12.75 -3.45 4.35 0.30 6.65 1.05 10.45 3.45 6.50 4.15 9.20 14.35 5.70 21.50 -2.40 4.90 -7.40 9.45 -11.85 10.80 -2.05 0.60 -6.25 1 -8 0.75z"/>
  <path d="M787.05 837.30 c-2.25 -0.80 -5.30 -3.40 -6.30 -5.40 -1.15 -2.25 -1.50 -6.35 -0.75 -8.60 0.70 -2.20 3.10 -5.05 5.05 -6.05 0.75 -0.40 4.95 -1.75 9.30 -3.05 7.15 -2.05 11.60 -3.55 20.30 -6.70 3.65 -1.30 17.35 -7.30 24.35 -10.65 6.05 -2.85 15.70 -8.20 25.70 -14.20 6.70 -4 10.55 -5.65 13.20 -5.65 7.30 0 13.10 8.55 10.35 15.15 -1.35 3.20 -3.70 5 -14 10.75 -15.60 8.65 -33.95 17.80 -44 21.95 -1.65 0.65 -3.90 1.60 -5 2.10 -5.30 2.45 -22.45 8.20 -29.75 10.10 -4.30 1.05 -6.05 1.15 -8.45 0.25z"/>
  <path d="M629.50 798.25 c-14.65 -1 -23.30 -1.95 -39.25 -4.25 -2.60 -0.40 -8.95 -1.45 -17.50 -3 -4.85 -0.85 -16.15 -3.15 -22 -4.50 -8.35 -1.90 -22.65 -5.35 -27 -6.55 -5.50 -1.50 -6.15 -1.70 -22 -6.25 -14.20 -4.05 -16.55 -4.70 -25 -7.15 -3.35 -0.95 -6.05 -1.75 -13.60 -4.10 -1.90 -0.55 -5.55 -1.65 -8.15 -2.45 -8 -2.40 -11.05 -3.35 -16.25 -5 -2.75 -0.90 -5.65 -1.80 -6.50 -2 -0.80 -0.20 -1.75 -0.45 -2.05 -0.55 -0.30 -0.10 -6.75 5.90 -14.35 13.35 -15.95 15.75 -28.70 27.70 -31.70 29.75 -4.15 2.90 -7.95 3 -15.65 0.45 -1.50 -0.45 -4.45 -1.35 -6.50 -1.95 -7.80 -2.30 -10.80 -5 -11.35 -10.25 -0.35 -3.25 0.45 -5.80 2.50 -8.10 3.85 -4.45 9.25 -4.85 18.85 -1.50 l2.25 0.75 2.25 -2.10 c5.50 -5.20 28 -27.60 28 -27.85 0 -0.45 -8.40 -2.80 -25 -7.05 -13.40 -3.40 -34.95 -8.20 -44.85 -10 -1.45 -0.25 -3.90 -0.65 -5.40 -0.95 -15.95 -2.90 -24.35 -4.20 -34.85 -5.50 -11.10 -1.30 -15 -1.70 -27.65 -2.75 -1.65 -0.15 -9.30 -0.40 -17 -0.55 -13.40 -0.35 -17.80 -0.15 -38.50 1.35 -20.75 1.55 -41.10 5 -58.75 10.05 -12.35 3.50 -27.95 9.10 -37 13.30 -6.50 3 -9.65 3.15 -13.70 0.55 -3.20 -2 -5.05 -5.35 -5.05 -9.20 0.05 -3.35 0.95 -5.45 3.30 -7.75 1.65 -1.55 8.40 -5.20 12.90 -7 1.50 -0.55 3.70 -1.50 4.90 -2.05 5.20 -2.35 20.50 -7.50 28.65 -9.65 0.70 -0.20 4.20 -1.10 7.75 -2 7.65 -2 22.60 -4.90 31.05 -6 11.85 -1.60 17.35 -2.15 32.85 -3.30 8.45 -0.65 41.30 -0.65 49.85 0 9.30 0.70 17.55 1.45 22 2 2.05 0.25 5.90 0.70 8.50 1 5.70 0.65 9.80 1.25 23.75 3.50 3.60 0.60 7.65 1.25 9 1.55 6.65 1.25 13.20 2.50 15 2.95 2.65 0.60 6.25 1.40 8.90 2 1.15 0.25 4.90 1.10 8.35 1.95 3.45 0.80 9.40 2.20 13.25 3.05 3.85 0.85 7.55 1.75 8.25 2 0.70 0.20 4.75 1.35 9 2.50 4.25 1.20 10.45 2.90 13.75 3.85 3.30 0.95 7.45 2.15 9.25 2.65 1.80 0.50 4.85 1.40 6.75 2 1.95 0.60 5.65 1.70 8.25 2.50 4.50 1.35 7.20 2.20 14.75 4.50 1.80 0.55 4.70 1.45 6.50 2 1.80 0.55 4.70 1.45 6.50 2 1.80 0.55 4.70 1.45 6.50 2 1.80 0.55 4.75 1.45 6.65 2.05 1.85 0.55 4.05 1.20 4.85 1.45 0.85 0.25 3.10 0.90 5 1.50 1.95 0.60 4.95 1.50 6.75 2 1.80 0.55 4.85 1.40 6.75 2 3.65 1.15 4.25 1.30 10.15 2.95 49.75 14.15 80.55 20.20 122.60 24.15 9 0.85 45.85 0.85 55.25 0 20.35 -1.85 33.30 -3.70 50.25 -7.15 17.20 -3.50 41.15 -10.65 57 -16.95 7.40 -3 27.50 -11.85 37.10 -16.45 11.30 -5.35 37.55 -20.40 47.20 -27.05 14.10 -9.70 24.35 -17.15 31.40 -22.85 2.10 -1.70 4.65 -3.35 5.70 -3.65 7 -1.95 12.75 1.45 14.50 8.55 0.80 3.30 -0.15 6.80 -2.70 9.60 -5.50 6.05 -36.85 28 -59.20 41.45 -11.20 6.75 -34.55 18.70 -45.70 23.40 -6.45 2.70 -14.70 6 -16.30 6.50 -0.70 0.25 -3.15 1.10 -5.50 2 -8.05 3 -21.95 7.45 -33.25 10.60 -7.40 2.05 -23.20 5.85 -27.75 6.65 -0.95 0.15 -4.10 0.75 -7 1.30 -9.90 1.85 -25.20 3.85 -37.75 4.90 -3.30 0.30 -8.60 0.75 -11.80 1.05 -7.70 0.65 -39.40 0.50 -50.95 -0.25z"/>
  <path d="M147.50 787.10 c-5.40 -2.70 -8.20 -7.90 -7 -12.70 0.75 -2.95 3 -5.65 5.95 -7.15 5.10 -2.55 25.40 -8.75 35.05 -10.65 8.60 -1.75 9.15 -1.80 17 -2.80 21.25 -2.65 40.20 -3.40 57.75 -2.30 14.75 0.90 31.70 2.60 32.80 3.30 0.25 0.15 2 -0.60 3.85 -1.70 4.60 -2.75 6.65 -3.30 11.60 -3.30 3.65 0.05 4.70 0.25 7.60 1.55 8.60 4 12.70 12.80 9.95 21.40 -2.75 8.40 -9.35 13.25 -18.05 13.25 -4.30 0 -8.55 -1.20 -11.25 -3.25 -2.25 -1.70 -4.45 -3.85 -5.45 -5.35 -0.65 -1.05 -1.35 -1.35 -3.20 -1.55 -24.95 -2.40 -29.20 -2.70 -42.60 -2.80 -11.90 -0.05 -27.70 0.95 -37.75 2.45 -1.65 0.25 -4.80 0.70 -7 1 -6.45 0.90 -11.65 1.95 -19.50 3.85 -2.75 0.70 -5.55 1.35 -6.20 1.50 -0.70 0.20 -5.05 1.60 -9.75 3.25 -9.05 3.10 -11.10 3.40 -13.80 2z"/>
  <path d="M673.50 752.85 c0 -0.15 1.30 -1 2.90 -1.85 7.70 -4.35 20 -13.30 27.80 -20.30 19.20 -17.10 31.70 -33.60 43.70 -57.70 6.15 -12.30 8.30 -17.55 12.15 -29.15 5 -15.05 7.35 -25.85 9.20 -42.60 0.90 -8 1.05 -35.20 0.25 -43.35 -1.30 -13.40 -2.65 -23.35 -4.25 -30.65 -1.05 -4.95 -3.70 -16.70 -4.80 -21.25 -0.55 -2.35 -1.30 -5.60 -1.70 -7.25 -0.65 -2.90 -1.75 -7.50 -4.55 -19.10 -2.20 -9.25 -11.25 -45.70 -12.25 -49.40 -3.10 -11.35 -6.20 -25.75 -7.25 -33.45 -2.20 -16.90 1.20 -32.75 9.55 -44.55 2.40 -3.35 8.40 -9.25 11.90 -11.65 3.60 -2.50 9.65 -5.40 14.85 -7.15 4.35 -1.45 5.30 -1.60 11.50 -1.65 6.90 -0.05 9.60 0.40 15.25 2.30 10.50 3.60 19.70 12.15 24.55 22.75 4.85 10.55 5 23.10 0.40 32.25 -5.40 10.70 -18.30 17.60 -29.90 15.95 -6.40 -0.90 -12 -4.80 -14.35 -9.85 -1.15 -2.60 -2.35 -8.95 -1.75 -9.55 0.20 -0.20 0.85 0.25 1.45 0.95 1.40 1.65 2.70 2.30 5.90 2.90 5.90 1.15 12.30 -2.30 14.85 -8 1.85 -4.05 1.80 -9.25 -0.10 -13 -1.85 -3.70 -4 -5.85 -7.50 -7.55 -5.35 -2.55 -11 -2.35 -16.80 0.55 -5.75 2.90 -9.80 7.80 -12.35 15.10 -1.20 3.35 -1.30 4.30 -1.30 11.65 0 8.20 0.05 8.70 3.10 20 1.10 3.90 6 16.15 9.90 24.75 0.70 1.50 2.55 5.70 4.15 9.25 1.60 3.60 3.60 8 4.45 9.90 0.85 1.85 1.55 3.50 1.55 3.60 0 0.10 0.70 1.70 1.50 3.50 0.85 1.80 1.50 3.40 1.50 3.50 0 0.10 0.55 1.40 1.20 2.85 2.85 6.20 8.90 22.10 13.15 34.40 0.85 2.55 5.35 17.35 6.20 20.50 2.10 7.75 4 15.35 4.50 18 0.30 1.50 0.70 3.65 0.95 4.75 1.25 6.40 2.40 13.65 3.60 23 0.90 6.80 0.85 39.90 0 45.75 -2.50 16.70 -2.65 17.45 -4.95 26.50 -5.40 21.20 -16.25 42.75 -30.35 60.45 -13.55 17 -35.85 33.90 -54.50 41.25 -7.45 2.95 -19.55 6.65 -28.55 8.75 -7.65 1.75 -24.75 4.50 -24.75 3.90z"/>
  <path d="M618.25 751.20 c-5.90 -0.35 -22.75 -2.35 -30.75 -3.70 -1.50 -0.20 -4.30 -0.65 -6.25 -1 -1.90 -0.30 -4.60 -0.75 -6 -1 -1.35 -0.30 -6.55 -1.30 -11.50 -2.30 -12.15 -2.40 -20.15 -4.20 -31.75 -7.15 -13.05 -3.35 -13.10 -3.35 -30.25 -8.30 -8.25 -2.40 -16.45 -4.75 -18.25 -5.25 -3.65 -1.05 -7.30 -2.15 -28.60 -8.55 -2.85 -0.85 -8.05 -2.40 -11.65 -3.45 -4.55 -1.30 -6.45 -2.10 -6.35 -2.55 0.15 -0.70 19.15 -38.70 20.95 -41.95 0.90 -1.65 1.15 -1.75 3.70 -1.85 5.20 -0.25 15.25 -1.20 22.45 -2.20 42.60 -5.85 92.05 -28.05 136.75 -61.40 4.95 -3.70 9.70 -7.30 10.55 -8 0.85 -0.70 2.60 -2.20 3.95 -3.30 9.70 -7.85 31.20 -28.40 39 -37.25 4.55 -5.10 12.75 -15.15 15 -18.30 0.85 -1.15 2.85 -4 4.45 -6.30 5.30 -7.35 8.40 -12.20 14.30 -21.90 6.65 -10.90 18 -33.55 22.25 -44.35 1 -2.55 1.55 -2.70 1.90 -0.50 0.10 0.85 0.60 2.95 1.10 4.60 1.50 5.35 3.35 12.45 3.80 14.75 0.25 1.20 0.80 3.45 1.20 5 1.40 5.45 4.50 19.35 5.75 25.75 0.20 1.10 0.95 4.80 1.65 8.25 0.70 3.45 1.95 10.55 2.80 15.75 0.85 5.25 1.80 10.75 2.05 12.25 1.95 11.65 2.65 20.55 2.65 34.50 0.05 19.95 -1.80 33.80 -6.75 51.50 -7.40 26.40 -20.70 49.80 -38.75 68.30 -7.35 7.55 -13.90 13.10 -24.65 21.05 -12.45 9.15 -29.50 19.35 -39.75 23.75 -4.50 1.95 -6.20 2.60 -9.95 3.95 -4 1.45 -6.20 1.65 -15.05 1.15z"/>
  <path d="M417.75 702.95 c-2.10 -0.65 -11.95 -3.25 -18.25 -4.85 -2.90 -0.70 -5.30 -1.30 -5.35 -1.35 -0.05 0 7.55 -15.45 16.90 -34.25 9.40 -18.85 19.50 -39.20 22.45 -45.25 14.80 -30.30 19.15 -39.05 28.20 -57.25 5.45 -10.85 10.10 -20 10.40 -20.35 0.40 -0.50 3.90 -0.65 14.70 -0.65 7.80 0 14.20 0.10 14.20 0.30 0 0.15 -1.10 2.55 -2.45 5.35 -1.35 2.80 -3.90 8.15 -5.70 11.85 -1.75 3.70 -6.55 13.50 -10.60 21.75 -4.05 8.25 -9.60 19.60 -12.35 25.25 -2.80 5.65 -13.95 28.15 -24.80 50 -10.85 21.85 -20.80 42.05 -22.15 44.90 -1.35 2.80 -2.75 5.10 -3.05 5.05 -0.35 0 -1.30 -0.25 -2.15 -0.50z"/>
  <path d="M376.95 692.75 c-0.50 -0.45 -29.15 -6.60 -38.70 -8.30 -1.65 -0.30 -4 -0.70 -5.25 -0.95 -5.10 -0.95 -10.30 -1.80 -18.50 -3 -2.05 -0.30 -5.10 -0.75 -6.75 -1 -1.65 -0.25 -5 -0.70 -7.50 -1 -2.45 -0.30 -6.20 -0.75 -8.25 -1 -3.50 -0.40 -7.95 -0.80 -23.65 -2 -8.25 -0.65 -33.30 -0.65 -41.90 0 -15.60 1.15 -21.15 1.75 -32.20 3.30 -3 0.45 -6.75 0.95 -8.25 1.20 -2.25 0.30 -2.85 0.20 -3.35 -0.45 -0.35 -0.45 -0.65 -1.10 -0.65 -1.45 0 -0.35 -0.20 -1 -0.45 -1.50 -2.90 -5.65 -7.65 -21.90 -9.30 -31.85 -1.10 -6.40 -2.25 -18.40 -2.25 -23.30 0 -7.65 1.40 -18.90 3.55 -27.95 1.20 -5.05 4.90 -16.25 6.60 -20.05 0.70 -1.50 1.85 -4.15 2.65 -5.90 0.80 -1.80 2.60 -5.50 4.05 -8.25 9.60 -18.25 13.30 -27.05 17.40 -41.05 2.85 -9.90 3.15 -19.55 0.75 -24.25 -3.40 -6.70 -12.65 -8.10 -18.60 -2.90 -3.15 2.80 -4.70 9 -3.45 13.70 0.75 2.85 3.15 6 5.50 7.20 2.10 1.05 5.75 1.35 6.30 0.50 0.35 -0.55 2.25 -0.70 2.25 -0.20 0 0.50 -2.05 2.20 -4.30 3.50 -2.55 1.50 -7.30 2.05 -11.45 1.25 -6.45 -1.20 -11.70 -5.35 -14.70 -11.55 -1.75 -3.70 -1.75 -3.80 -1.75 -10.25 0 -5.65 0.15 -6.90 1.15 -9.50 1.85 -4.65 4.75 -8.85 8.75 -12.65 6.65 -6.35 10.95 -8.10 19.60 -8.15 3.30 0 6.90 0.30 8.90 0.75 12.25 2.85 20.95 11.80 24.90 25.65 0.95 3.35 1.10 5.15 1.15 12.40 0 8.60 -0.25 10.50 -2.35 17.25 -0.85 2.90 -3.30 9.55 -4.40 12.25 -0.45 1 -4.80 12.30 -8.40 21.75 -3.35 8.70 -5 14.40 -6.65 22.75 -0.85 4.30 -0.85 18.70 0 23 0.75 3.95 2.70 10.10 3.90 12.40 7.65 14.90 26.85 18.45 38.70 7.25 4.75 -4.50 8 -9.45 11.75 -17.90 2.25 -5.15 5.95 -15.45 7.70 -21.50 0.85 -3 3.35 -11.25 7.75 -25.75 9 -29.65 20.50 -61.15 29.60 -81.20 5.25 -11.60 13.35 -26.40 19.15 -35.10 l2.90 -4.30 -1.95 -2.45 c-2.35 -3 -6 -10.30 -7.35 -14.75 -2.15 -7.10 -2.75 -11.90 -2.45 -21.35 0.35 -13.50 2.55 -21.70 9.35 -35.20 1.75 -3.45 7.30 -12.35 10.15 -16.25 3.95 -5.40 6.85 -10.75 9.10 -16.65 1.60 -4.25 2.25 -10.25 2.75 -25.75 0.70 -21.35 1.40 -27.40 3.90 -32.85 2.30 -5 5.65 -7.85 10.45 -8.85 5.70 -1.20 13.75 1.55 21.40 7.30 3.95 3 5.80 4.85 14.50 14.35 3.80 4.20 5.95 6.35 9.95 10.05 3.70 3.50 11.05 7.40 22.05 11.75 23.20 9.20 36.10 18.05 46.60 31.95 2.95 3.90 8.65 14.15 10.20 18.30 2.10 5.80 3.35 10.50 4.50 17.25 1.35 8 1.50 22.55 0.30 30.50 -1.70 10.75 -5.35 22.55 -9.90 31.85 -2.40 4.85 -7.15 12.65 -7.70 12.65 -0.15 0 0.40 -1.35 1.25 -3 1.75 -3.45 3.45 -7.60 4 -9.75 0.25 -0.80 0.90 -3.05 1.50 -5 4.60 -15.40 5.55 -36.10 2.20 -49.75 -2.05 -8.30 -6.80 -15.05 -12.05 -17 -5.15 -1.95 -11.05 -1.15 -17.90 2.40 -3.05 1.60 -13.20 8.85 -16 11.45 -0.55 0.50 -3.35 2.95 -6.25 5.50 -6.90 6 -18.25 17.55 -25.10 25.50 -9.15 10.65 -19.25 27.50 -22.55 37.50 -2.95 9.15 -3.15 17.90 -0.50 24.70 4.85 12.50 15.70 20.25 32.45 23.15 9.65 1.70 29.15 0.90 53.45 -2.15 1.95 -0.25 3.55 -0.40 3.60 -0.35 0.10 0.05 -0.50 1.45 -1.30 3.10 -0.80 1.60 -2.30 4.75 -3.30 6.95 -8.90 19.05 -27.75 56.80 -35.35 70.75 -4.40 8.10 -14 23.05 -22 34.25 -1.20 1.70 -3.25 4.65 -4.65 6.60 -2.85 4.15 -3.05 4.20 -8.45 2.60 -6 -1.75 -7.65 -2.35 -11.45 -4.25 -7.30 -3.70 -12.95 -8.15 -17.60 -13.95 -1.10 -1.40 -2.15 -2.60 -2.30 -2.75 -0.55 -0.50 -3.45 -4.95 -3.45 -5.35 0 -0.20 -0.50 -0.95 -1.05 -1.65 l-1 -1.25 0.20 1.75 c0.15 0.95 0.50 2.60 0.80 3.65 0.30 1 0.75 2.60 1 3.50 1.85 6.65 8.80 22.30 12.45 28.05 0.70 1.10 2.05 3.30 3 4.80 4.55 7.15 12.85 16.20 17.70 19.25 1.35 0.85 2.40 1.75 2.40 2.05 0 0.75 -5.85 13.90 -10 22.45 -6.85 14.20 -11.10 22.75 -11.20 22.75 -0.10 0 -0.25 -0.10 -0.35 -0.25z"/>
  <path d="M527.20 484 c-0.30 -0.30 -5.10 -0.70 -10.75 -1 -9.85 -0.45 -16.45 -0.95 -16.45 -1.25 0 -0.10 2.10 -4.50 4.70 -9.80 2.55 -5.35 5.15 -10.70 5.70 -11.95 0.55 -1.25 3.40 -7.15 6.30 -13.20 2.90 -6 5.30 -11 5.30 -11.05 0 -0.10 2.60 -5.55 5.80 -12.10 3.15 -6.55 6.10 -12.65 6.55 -13.50 0.40 -0.90 1 -1.65 1.25 -1.65 0.60 0 14.10 6.75 17.90 8.95 1.50 0.85 3.25 1.85 3.90 2.15 0.60 0.30 1.10 0.70 1.10 0.90 0 0.35 -3.40 7.70 -9 19.25 -4.80 10 -9.45 19.70 -10.85 22.75 -3 6.45 -10.60 22 -10.75 22 -0.10 0 -0.45 -0.25 -0.70 -0.50z"/>
  <path d="M581.35 374.15 c-0.20 -0.15 -0.35 -0.70 -0.35 -1.20 0 -0.55 -0.60 -1.05 -1.60 -1.35 -2.70 -0.80 -9 -2.60 -11.15 -3.20 -1.10 -0.25 -2.55 -0.70 -3.25 -0.90 -0.70 -0.20 -2.95 -0.90 -5 -1.50 -2.05 -0.60 -3.80 -1.20 -3.90 -1.25 -0.15 -0.10 3.60 -8.20 10.90 -23.50 1.70 -3.55 3.90 -8.20 4.90 -10.25 0.95 -2.05 3.40 -7.20 5.45 -11.45 2 -4.20 3.65 -7.75 3.65 -7.80 0 -0.10 2.05 -4.40 4.55 -9.55 2.50 -5.20 5.20 -10.80 5.95 -12.45 0.75 -1.65 3.20 -6.80 5.45 -11.45 2.25 -4.65 4.05 -8.50 4.05 -8.55 0 -0.10 1.45 -3.15 3.20 -6.85 5.30 -11.15 7.35 -15.45 9.55 -20.15 3.10 -6.50 6.70 -14.05 10.25 -21.50 1.70 -3.55 3.75 -7.85 4.50 -9.50 2 -4.30 9.05 -19.10 14.25 -30 1.60 -3.30 3.80 -7.90 4.85 -10.25 6.35 -13.50 8.60 -18.25 13.95 -29.40 1.95 -4.05 4.10 -8.60 4.80 -10.10 8.80 -19.05 11.20 -22.60 16.30 -24.30 4.60 -1.55 10.95 0.35 14.85 4.35 4.55 4.65 5.05 9.60 1.75 16.75 -0.70 1.50 -1.85 4 -2.55 5.55 -1.75 3.80 -5.15 11 -12.45 26.40 -1.20 2.50 -3.60 7.55 -5.40 11.25 -5.10 10.65 -9.25 19.35 -11.90 24.90 -7.35 15.35 -10.35 21.65 -13.95 29.35 -3.20 6.75 -6.70 14.15 -10.40 21.75 -1.90 4 -4.50 9.40 -5.75 12 -1.25 2.60 -3.70 7.80 -5.50 11.50 -4.15 8.65 -8.20 17.20 -10.55 22.10 -1 2.15 -3.30 7 -5.10 10.75 -1.85 3.80 -4.30 8.95 -5.45 11.40 -1.20 2.50 -3.75 7.80 -5.70 11.85 -1.95 4.05 -4.55 9.55 -5.85 12.25 -1.25 2.70 -3.25 6.95 -4.45 9.40 -6.95 14.45 -10.25 21.40 -11.05 23.20 -0.90 2.05 -1.25 2.35 -1.85 1.70z"/>
  <path d="M572.75 270.35 c-4.60 -4.70 -7.55 -7.50 -12.35 -11.70 -2.90 -2.55 -11.80 -9.25 -16.75 -12.55 -19.40 -13.05 -44.10 -24.15 -67.65 -30.35 -7.20 -1.90 -9.35 -2.40 -13.25 -3.30 -13.75 -3.05 -25.65 -4.75 -45.25 -6.50 -9.90 -0.85 -31.60 -1.10 -39.90 -0.50 -10.80 0.85 -22.20 2.25 -29.20 3.50 -1.60 0.30 -4.10 0.75 -5.50 1 -4.75 0.85 -20.45 4.45 -24.15 5.60 -0.80 0.25 -4.75 1.45 -8.75 2.65 -13.80 4.20 -29.35 10.25 -43 16.70 -2.60 1.20 -6.45 3 -8.50 3.95 -7.25 3.35 -14.80 6.95 -19.85 9.50 -2.85 1.40 -5.15 2.50 -5.15 2.35 0 -0.50 9.30 -11.70 15.90 -19.20 6.75 -7.60 31.30 -32.60 40.10 -40.80 26.35 -24.55 59.70 -49.15 89.25 -65.95 8.05 -4.55 24.70 -13 31.50 -16 3.05 -1.30 6.65 -2.90 8 -3.50 2.65 -1.20 18.50 -7.20 22.25 -8.40 1.25 -0.40 4.60 -1.45 7.50 -2.35 2.90 -0.85 5.80 -1.75 6.50 -2 0.70 -0.25 4.20 -1.15 7.75 -2 8.80 -2.10 10 -2.40 13.50 -3.05 1.65 -0.30 4 -0.75 5.25 -0.95 26.75 -5.05 56.80 -5.50 85.25 -1.30 16.60 2.50 34.30 7.15 52 13.70 6.25 2.35 5.90 2.20 14.15 5.90 1.45 0.65 2.75 1.20 2.85 1.20 1 0 16.75 8.25 16.75 8.75 0 1 -1.20 4.15 -3.50 9 -1.15 2.50 -3.75 8.10 -5.75 12.50 -2 4.40 -4.35 9.60 -5.25 11.50 -0.90 1.95 -2.45 5.40 -3.50 7.75 -1.85 4.15 -8.35 18.55 -10.85 24 -0.70 1.50 -2.10 4.65 -3.15 7 -1.05 2.35 -2.60 5.85 -3.50 7.75 -0.90 1.95 -2.15 4.70 -2.80 6.15 -2.55 5.60 -3.70 8 -5.85 12.60 -1.20 2.60 -2.70 5.85 -3.30 7.20 -0.65 1.30 -2.95 6.15 -5.15 10.75 -7.90 16.40 -10.05 20.85 -12.20 25.45 -1.20 2.60 -2.20 4.75 -2.20 4.85 0 0.05 -1.25 2.80 -2.80 6.05 -1.55 3.25 -3 6.45 -3.25 7.05 -0.25 0.65 -0.60 1.15 -0.80 1.15 -0.25 -0.05 -2.65 -2.35 -5.40 -5.15z"/>
 </g>
</svg>
